<?xml version="1.0" encoding="UTF-8" standalone="no"?>
<!DOCTYPE svg PUBLIC "-//W3C//DTD SVG 1.1//EN" "http://www.w3.org/Graphics/SVG/1.1/DTD/svg11.dtd">
<svg width="100%" height="100%" viewBox="0 0 1851 1188" version="1.1" xmlns="http://www.w3.org/2000/svg" xmlns:xlink="http://www.w3.org/1999/xlink" xml:space="preserve" xmlns:serif="http://www.serif.com/" style="fill-rule:evenodd;clip-rule:evenodd;stroke-linejoin:round;stroke-miterlimit:2;">
    <g transform="matrix(1,0,0,1,-289.802,-688.408)">
        <g>
            <g transform="matrix(13.3315,0,0,13.3315,-4236.49,-9871.51)">
                <g transform="matrix(50,0,0,50,339.889,836.304)">
                    <path fill="currentColor" d="M0.376,-0.207C0.374,-0.207 0.371,-0.21 0.369,-0.215C0.367,-0.223 0.366,-0.222 0.35,-0.204C0.341,-0.194 0.331,-0.179 0.327,-0.171C0.32,-0.155 0.308,-0.132 0.294,-0.105C0.29,-0.097 0.284,-0.086 0.283,-0.081C0.281,-0.076 0.277,-0.071 0.275,-0.07C0.273,-0.068 0.27,-0.064 0.27,-0.06C0.27,-0.056 0.268,-0.053 0.265,-0.052C0.263,-0.051 0.259,-0.044 0.255,-0.036C0.251,-0.028 0.246,-0.02 0.244,-0.017C0.241,-0.014 0.241,-0.012 0.244,-0.012C0.246,-0.012 0.245,-0.01 0.242,-0.007C0.238,-0.005 0.23,0.005 0.224,0.015C0.212,0.033 0.21,0.037 0.197,0.051C0.178,0.072 0.14,0.106 0.13,0.11C0.119,0.115 0.118,0.115 0.113,0.109C0.103,0.098 0.094,0.079 0.093,0.07C0.093,0.047 0.089,0.028 0.085,0.024C0.082,0.022 0.082,0.019 0.084,0.019C0.086,0.018 0.088,0.009 0.087,-0.002L0.087,-0.043C0.087,-0.054 0.087,-0.069 0.086,-0.074C0.086,-0.08 0.085,-0.092 0.085,-0.102C0.086,-0.134 0.085,-0.152 0.082,-0.161C0.08,-0.166 0.079,-0.182 0.08,-0.196C0.081,-0.227 0.081,-0.226 0.082,-0.233C0.083,-0.237 0.084,-0.247 0.084,-0.257C0.084,-0.267 0.085,-0.297 0.087,-0.324C0.089,-0.35 0.09,-0.377 0.09,-0.383C0.089,-0.427 0.09,-0.447 0.096,-0.462C0.099,-0.471 0.099,-0.473 0.092,-0.473C0.086,-0.474 0.085,-0.474 0.091,-0.477C0.098,-0.481 0.1,-0.493 0.105,-0.569C0.108,-0.619 0.113,-0.693 0.113,-0.699L0.126,-0.767C0.127,-0.769 0.13,-0.773 0.135,-0.776C0.139,-0.778 0.145,-0.785 0.148,-0.79C0.155,-0.801 0.16,-0.848 0.155,-0.852C0.153,-0.853 0.149,-0.858 0.146,-0.862C0.144,-0.867 0.136,-0.873 0.13,-0.875C0.124,-0.877 0.121,-0.88 0.122,-0.881C0.128,-0.885 0.072,-0.885 0.061,-0.881C0.054,-0.879 0.049,-0.874 0.044,-0.864C0.04,-0.856 0.038,-0.85 0.039,-0.849C0.04,-0.848 0.037,-0.846 0.034,-0.844C0.026,-0.84 0.024,-0.83 0.029,-0.828C0.034,-0.825 0.034,-0.798 0.031,-0.752L0.022,-0.616C0.022,-0.608 0.018,-0.557 0.013,-0.503L0.002,-0.378C0,-0.325 -0.002,-0.299 -0.005,-0.253C-0.007,-0.227 -0.008,-0.188 -0.007,-0.167C-0.005,-0.124 -0.005,-0.114 -0.005,-0.084L-0.005,-0.052C-0.003,-0.025 -0.003,-0.006 -0.003,0.009C-0.003,0.017 -0.002,0.037 0,0.054C0.004,0.087 0.01,0.1 0.033,0.116C0.048,0.128 0.097,0.148 0.103,0.145C0.105,0.145 0.108,0.145 0.109,0.147C0.113,0.152 0.144,0.15 0.168,0.143C0.193,0.136 0.222,0.116 0.233,0.098C0.237,0.09 0.245,0.08 0.25,0.075C0.255,0.07 0.258,0.065 0.257,0.064C0.256,0.062 0.257,0.061 0.259,0.061C0.264,0.062 0.281,0.033 0.279,0.027C0.278,0.025 0.279,0.022 0.281,0.021C0.284,0.02 0.286,0.017 0.286,0.014C0.286,0.011 0.291,0.004 0.296,-0.002C0.309,-0.018 0.315,-0.033 0.308,-0.034C0.302,-0.034 0.308,-0.046 0.32,-0.061C0.325,-0.067 0.33,-0.077 0.331,-0.083C0.332,-0.095 0.353,-0.134 0.365,-0.147C0.371,-0.155 0.381,-0.206 0.376,-0.207ZM0.04,-0.424C0.038,-0.424 0.036,-0.421 0.036,-0.417C0.036,-0.413 0.037,-0.41 0.037,-0.41C0.041,-0.41 0.04,-0.385 0.035,-0.369C0.033,-0.362 0.034,-0.357 0.036,-0.357C0.038,-0.357 0.037,-0.355 0.034,-0.353C0.031,-0.35 0.029,-0.343 0.029,-0.335C0.029,-0.327 0.029,-0.321 0.028,-0.321C0.024,-0.321 0.019,-0.331 0.02,-0.337C0.02,-0.341 0.021,-0.353 0.022,-0.364L0.026,-0.406C0.028,-0.418 0.028,-0.43 0.026,-0.432C0.025,-0.434 0.025,-0.436 0.027,-0.437C0.029,-0.438 0.032,-0.453 0.034,-0.472C0.038,-0.504 0.038,-0.505 0.046,-0.504C0.056,-0.502 0.059,-0.495 0.05,-0.496C0.044,-0.496 0.043,-0.494 0.045,-0.489C0.048,-0.481 0.046,-0.46 0.04,-0.453C0.038,-0.449 0.039,-0.448 0.043,-0.448C0.049,-0.447 0.049,-0.446 0.045,-0.44C0.042,-0.436 0.041,-0.431 0.042,-0.428C0.043,-0.425 0.042,-0.424 0.04,-0.424ZM0.024,-0.267C0.022,-0.265 0.021,-0.259 0.023,-0.255C0.024,-0.25 0.023,-0.246 0.021,-0.246C0.018,-0.246 0.016,-0.26 0.017,-0.273C0.018,-0.301 0.02,-0.314 0.023,-0.316C0.026,-0.32 0.026,-0.314 0.024,-0.29C0.024,-0.283 0.024,-0.276 0.026,-0.274C0.027,-0.273 0.026,-0.269 0.024,-0.267ZM0.069,-0.528C0.073,-0.558 0.073,-0.559 0.075,-0.543C0.077,-0.525 0.077,-0.526 0.074,-0.508C0.073,-0.501 0.07,-0.495 0.068,-0.495C0.066,-0.495 0.066,-0.51 0.069,-0.528ZM0.019,0.013C0.017,0.013 0.015,0.013 0.015,0.012C0.016,-0.014 0.015,-0.026 0.014,-0.035C0.014,-0.042 0.014,-0.044 0.017,-0.042C0.019,-0.04 0.021,-0.029 0.021,-0.018C0.021,-0.006 0.021,0.005 0.022,0.007C0.023,0.009 0.021,0.012 0.019,0.013ZM0.015,-0.227C0.016,-0.236 0.018,-0.243 0.02,-0.243C0.022,-0.243 0.022,-0.237 0.021,-0.229C0.018,-0.21 0.013,-0.209 0.015,-0.227ZM0.076,-0.378C0.075,-0.379 0.071,-0.378 0.068,-0.374C0.065,-0.37 0.062,-0.369 0.057,-0.372C0.053,-0.374 0.053,-0.375 0.059,-0.375C0.065,-0.374 0.066,-0.375 0.063,-0.378C0.06,-0.381 0.062,-0.382 0.07,-0.382C0.075,-0.382 0.079,-0.381 0.079,-0.379C0.079,-0.377 0.078,-0.377 0.076,-0.378ZM0.013,-0.18C0.013,-0.195 0.018,-0.197 0.019,-0.183C0.019,-0.178 0.018,-0.172 0.016,-0.17C0.014,-0.168 0.013,-0.173 0.013,-0.18ZM0.059,-0.421C0.055,-0.424 0.061,-0.435 0.066,-0.435C0.068,-0.435 0.069,-0.434 0.069,-0.432C0.067,-0.427 0.061,-0.42 0.059,-0.421ZM0.071,-0.589C0.073,-0.6 0.079,-0.598 0.078,-0.587C0.077,-0.583 0.075,-0.579 0.074,-0.58C0.072,-0.58 0.071,-0.584 0.071,-0.589ZM0.085,-0.462C0.085,-0.46 0.08,-0.458 0.074,-0.456C0.067,-0.454 0.063,-0.454 0.064,-0.456C0.064,-0.458 0.067,-0.459 0.07,-0.459C0.074,-0.459 0.077,-0.46 0.077,-0.462C0.077,-0.463 0.079,-0.465 0.081,-0.464C0.084,-0.464 0.085,-0.463 0.085,-0.462ZM0.055,-0.299C0.049,-0.299 0.045,-0.301 0.045,-0.302C0.045,-0.304 0.05,-0.304 0.055,-0.303C0.061,-0.302 0.066,-0.301 0.065,-0.3C0.065,-0.299 0.061,-0.299 0.055,-0.299ZM0.056,-0.361C0.056,-0.359 0.054,-0.357 0.052,-0.357C0.049,-0.357 0.048,-0.36 0.048,-0.363C0.049,-0.366 0.051,-0.368 0.053,-0.367C0.055,-0.366 0.056,-0.363 0.056,-0.361ZM0.016,-0.208C0.02,-0.21 0.021,-0.209 0.02,-0.204C0.02,-0.197 0.017,-0.196 0.014,-0.201C0.012,-0.203 0.013,-0.206 0.016,-0.208ZM0.013,-0.075C0.013,-0.078 0.016,-0.08 0.018,-0.08C0.02,-0.08 0.022,-0.078 0.021,-0.075C0.021,-0.073 0.019,-0.071 0.017,-0.071C0.014,-0.071 0.013,-0.073 0.013,-0.075ZM0.06,-0.395C0.065,-0.394 0.068,-0.393 0.068,-0.392C0.068,-0.388 0.056,-0.389 0.054,-0.393C0.053,-0.394 0.056,-0.395 0.06,-0.395ZM0.039,-0.514C0.041,-0.516 0.044,-0.517 0.046,-0.517C0.048,-0.517 0.05,-0.516 0.05,-0.514C0.05,-0.512 0.046,-0.511 0.043,-0.511C0.039,-0.511 0.038,-0.513 0.039,-0.514ZM0.035,-0.014C0.035,-0.017 0.036,-0.019 0.037,-0.019C0.038,-0.019 0.04,-0.017 0.041,-0.014C0.042,-0.011 0.041,-0.009 0.038,-0.01C0.036,-0.01 0.035,-0.012 0.035,-0.014ZM0.063,-0.485C0.063,-0.487 0.064,-0.489 0.065,-0.489C0.066,-0.489 0.068,-0.487 0.069,-0.485C0.07,-0.482 0.069,-0.48 0.066,-0.48C0.064,-0.48 0.063,-0.482 0.063,-0.485ZM0.057,-0.413C0.059,-0.416 0.067,-0.416 0.067,-0.412C0.067,-0.412 0.064,-0.411 0.06,-0.41C0.056,-0.409 0.055,-0.41 0.057,-0.413ZM0.051,-0.544C0.053,-0.546 0.056,-0.547 0.058,-0.547C0.061,-0.547 0.061,-0.545 0.06,-0.544C0.058,-0.542 0.055,-0.541 0.053,-0.541C0.05,-0.541 0.05,-0.542 0.051,-0.544ZM0.074,-0.574C0.076,-0.573 0.078,-0.571 0.077,-0.569C0.077,-0.566 0.076,-0.564 0.075,-0.564C0.074,-0.564 0.073,-0.567 0.072,-0.569C0.071,-0.572 0.072,-0.574 0.074,-0.574ZM0.04,-0.523C0.043,-0.526 0.051,-0.524 0.051,-0.521C0.051,-0.521 0.048,-0.52 0.044,-0.52C0.04,-0.52 0.039,-0.522 0.04,-0.523ZM0.081,-0.431C0.079,-0.431 0.077,-0.433 0.078,-0.435C0.078,-0.436 0.08,-0.437 0.082,-0.436C0.084,-0.435 0.086,-0.433 0.086,-0.432C0.086,-0.432 0.084,-0.431 0.081,-0.431ZM0.079,-0.41C0.077,-0.41 0.075,-0.412 0.075,-0.414C0.075,-0.415 0.077,-0.416 0.079,-0.415C0.082,-0.414 0.083,-0.412 0.083,-0.411C0.083,-0.411 0.081,-0.41 0.079,-0.41ZM0.072,-0.446C0.074,-0.445 0.072,-0.444 0.066,-0.444C0.061,-0.444 0.058,-0.445 0.061,-0.446C0.064,-0.447 0.069,-0.447 0.072,-0.446ZM0.046,-0.327C0.047,-0.328 0.05,-0.33 0.051,-0.33C0.052,-0.329 0.052,-0.328 0.052,-0.326C0.052,-0.325 0.05,-0.324 0.047,-0.324C0.045,-0.324 0.044,-0.325 0.046,-0.327ZM0.074,-0.422C0.076,-0.424 0.078,-0.425 0.079,-0.425C0.08,-0.425 0.081,-0.424 0.08,-0.422C0.08,-0.421 0.078,-0.419 0.076,-0.419C0.073,-0.419 0.073,-0.421 0.074,-0.422ZM0.038,0.014C0.036,0.013 0.036,0.01 0.037,0.01C0.039,0.009 0.04,0.011 0.041,0.013C0.044,0.018 0.041,0.019 0.038,0.014ZM0.017,-0.085C0.016,-0.083 0.015,-0.085 0.015,-0.089C0.016,-0.093 0.017,-0.095 0.018,-0.093C0.019,-0.09 0.018,-0.087 0.017,-0.085ZM0.057,0.024C0.052,0.024 0.051,0.023 0.055,0.022C0.058,0.021 0.061,0.022 0.063,0.023C0.064,0.024 0.061,0.024 0.057,0.024ZM0.067,-0.438C0.062,-0.438 0.062,-0.439 0.065,-0.44C0.068,-0.441 0.072,-0.44 0.073,-0.439C0.074,-0.438 0.072,-0.438 0.067,-0.438ZM0.02,0.025C0.019,0.026 0.018,0.024 0.018,0.021C0.019,0.018 0.02,0.017 0.021,0.02C0.022,0.022 0.022,0.024 0.02,0.025Z" style="fill:white;fill-rule:nonzero;"/>
                </g>
                <g transform="matrix(50,0,0,50,357.639,836.304)">
                    <path fill="currentColor" d="M0.524,-0.259C0.519,-0.261 0.519,-0.263 0.523,-0.269C0.53,-0.279 0.525,-0.279 0.504,-0.268C0.494,-0.263 0.485,-0.259 0.483,-0.259C0.481,-0.259 0.472,-0.255 0.463,-0.25C0.437,-0.237 0.401,-0.228 0.369,-0.228C0.328,-0.228 0.299,-0.239 0.269,-0.266C0.246,-0.286 0.245,-0.287 0.245,-0.304C0.245,-0.314 0.247,-0.325 0.249,-0.33C0.252,-0.335 0.252,-0.34 0.249,-0.345C0.247,-0.349 0.245,-0.357 0.244,-0.362C0.243,-0.368 0.239,-0.379 0.236,-0.388C0.232,-0.397 0.23,-0.404 0.232,-0.404C0.233,-0.404 0.232,-0.406 0.229,-0.408C0.226,-0.411 0.225,-0.413 0.226,-0.413C0.228,-0.413 0.224,-0.417 0.217,-0.421C0.205,-0.429 0.203,-0.43 0.176,-0.429C0.154,-0.428 0.145,-0.426 0.138,-0.421C0.128,-0.415 0.128,-0.413 0.131,-0.388L0.133,-0.362L0.122,-0.362C0.116,-0.362 0.109,-0.364 0.106,-0.366C0.102,-0.37 0.1,-0.37 0.087,-0.365C0.079,-0.362 0.073,-0.359 0.072,-0.357C0.072,-0.355 0.065,-0.345 0.057,-0.334C0.044,-0.318 0.028,-0.294 0.027,-0.289C0.027,-0.288 0.022,-0.281 0.018,-0.274C-0.004,-0.24 -0.024,-0.143 -0.017,-0.107C-0.01,-0.075 -0.008,-0.067 0,-0.057C0.009,-0.045 0.018,-0.035 0.022,-0.035C0.023,-0.035 0.031,-0.031 0.039,-0.026C0.048,-0.02 0.06,-0.014 0.068,-0.012C0.087,-0.007 0.117,-0.008 0.134,-0.014C0.16,-0.023 0.185,-0.051 0.19,-0.076C0.191,-0.081 0.198,-0.097 0.206,-0.111C0.214,-0.125 0.222,-0.144 0.225,-0.153C0.227,-0.162 0.231,-0.173 0.233,-0.177C0.235,-0.182 0.238,-0.192 0.239,-0.202C0.241,-0.211 0.243,-0.219 0.244,-0.219C0.244,-0.22 0.243,-0.222 0.241,-0.225C0.233,-0.231 0.24,-0.229 0.259,-0.22C0.331,-0.186 0.4,-0.183 0.469,-0.209C0.496,-0.22 0.52,-0.236 0.52,-0.244C0.52,-0.246 0.522,-0.25 0.525,-0.252C0.529,-0.255 0.529,-0.257 0.524,-0.259ZM0.202,-0.234L0.193,-0.205C0.189,-0.188 0.178,-0.153 0.174,-0.141C0.165,-0.12 0.129,-0.068 0.114,-0.057C0.097,-0.043 0.095,-0.043 0.087,-0.049C0.084,-0.052 0.083,-0.054 0.084,-0.054C0.086,-0.054 0.084,-0.059 0.081,-0.065C0.074,-0.08 0.073,-0.139 0.079,-0.159C0.086,-0.18 0.095,-0.199 0.101,-0.206C0.104,-0.209 0.108,-0.218 0.11,-0.225C0.111,-0.232 0.115,-0.238 0.117,-0.239C0.119,-0.24 0.12,-0.244 0.12,-0.248C0.12,-0.252 0.122,-0.256 0.124,-0.257C0.127,-0.258 0.135,-0.269 0.143,-0.282C0.152,-0.294 0.159,-0.304 0.16,-0.304C0.16,-0.303 0.172,-0.291 0.185,-0.277L0.209,-0.252L0.202,-0.234Z" style="fill:white;fill-rule:nonzero;"/>
                </g>
                <g transform="matrix(50,0,0,50,377.439,836.304)">
                    <path fill="currentColor" d="M0.537,-0.415C0.529,-0.417 0.531,-0.426 0.541,-0.435C0.546,-0.439 0.549,-0.444 0.547,-0.444C0.541,-0.449 0.427,-0.34 0.398,-0.301C0.393,-0.293 0.387,-0.286 0.385,-0.285C0.383,-0.284 0.379,-0.28 0.376,-0.276C0.36,-0.255 0.349,-0.24 0.339,-0.228C0.333,-0.22 0.328,-0.212 0.33,-0.21C0.331,-0.209 0.329,-0.207 0.326,-0.206C0.323,-0.205 0.32,-0.203 0.32,-0.201C0.32,-0.199 0.312,-0.186 0.303,-0.172C0.294,-0.158 0.285,-0.141 0.282,-0.135C0.28,-0.128 0.275,-0.119 0.272,-0.114C0.267,-0.107 0.266,-0.107 0.266,-0.112C0.266,-0.116 0.263,-0.121 0.26,-0.124C0.256,-0.127 0.253,-0.134 0.253,-0.138C0.253,-0.142 0.25,-0.148 0.247,-0.151C0.244,-0.155 0.241,-0.16 0.241,-0.163C0.241,-0.167 0.238,-0.173 0.235,-0.177L0.224,-0.196C0.221,-0.202 0.218,-0.207 0.216,-0.207C0.215,-0.207 0.213,-0.209 0.213,-0.212C0.213,-0.215 0.202,-0.235 0.189,-0.256C0.176,-0.278 0.166,-0.296 0.166,-0.298C0.166,-0.299 0.162,-0.306 0.158,-0.314C0.154,-0.321 0.146,-0.334 0.141,-0.344C0.135,-0.354 0.13,-0.364 0.128,-0.365C0.126,-0.367 0.124,-0.371 0.124,-0.374C0.124,-0.378 0.121,-0.385 0.118,-0.389C0.114,-0.394 0.112,-0.4 0.112,-0.402C0.112,-0.408 0.081,-0.418 0.064,-0.418C0.056,-0.418 0.049,-0.42 0.049,-0.422C0.049,-0.423 0.046,-0.424 0.041,-0.423L0.017,-0.42C-0.001,-0.419 -0.005,-0.413 0.007,-0.404C0.015,-0.398 0.037,-0.366 0.055,-0.335C0.064,-0.32 0.074,-0.304 0.093,-0.276C0.101,-0.264 0.107,-0.253 0.107,-0.252C0.107,-0.25 0.112,-0.242 0.118,-0.234C0.132,-0.211 0.148,-0.183 0.151,-0.174L0.16,-0.157C0.163,-0.152 0.173,-0.131 0.182,-0.111C0.2,-0.074 0.204,-0.061 0.22,-0.004C0.228,0.028 0.229,0.029 0.242,0.04C0.248,0.045 0.251,0.046 0.254,0.043C0.256,0.041 0.26,0.041 0.268,0.046C0.283,0.054 0.31,0.055 0.306,0.048C0.304,0.045 0.306,0.044 0.311,0.044C0.316,0.044 0.323,0.039 0.328,0.034C0.336,0.026 0.338,0.02 0.339,-0.006C0.34,-0.023 0.343,-0.043 0.345,-0.052L0.351,-0.073C0.362,-0.116 0.39,-0.174 0.416,-0.21L0.434,-0.236C0.455,-0.265 0.465,-0.277 0.49,-0.306C0.502,-0.32 0.51,-0.331 0.508,-0.331C0.507,-0.331 0.508,-0.333 0.512,-0.336C0.527,-0.349 0.536,-0.369 0.535,-0.385C0.534,-0.394 0.535,-0.404 0.538,-0.407C0.541,-0.412 0.541,-0.414 0.537,-0.415ZM0.481,-0.362C0.461,-0.34 0.445,-0.32 0.445,-0.319C0.445,-0.317 0.443,-0.316 0.44,-0.316C0.438,-0.316 0.436,-0.314 0.436,-0.313C0.436,-0.311 0.43,-0.303 0.422,-0.294C0.414,-0.286 0.408,-0.278 0.41,-0.276C0.411,-0.275 0.41,-0.273 0.407,-0.273C0.405,-0.273 0.4,-0.269 0.397,-0.264C0.393,-0.259 0.392,-0.255 0.393,-0.255C0.395,-0.255 0.393,-0.254 0.389,-0.252C0.385,-0.25 0.381,-0.245 0.38,-0.241C0.379,-0.236 0.377,-0.232 0.375,-0.231C0.373,-0.23 0.371,-0.227 0.37,-0.224C0.37,-0.22 0.367,-0.217 0.365,-0.217C0.363,-0.216 0.362,-0.214 0.364,-0.213C0.365,-0.211 0.363,-0.209 0.359,-0.208C0.352,-0.206 0.339,-0.187 0.343,-0.183C0.344,-0.181 0.342,-0.18 0.339,-0.18C0.335,-0.18 0.332,-0.179 0.332,-0.177C0.332,-0.175 0.335,-0.175 0.34,-0.176C0.344,-0.176 0.343,-0.176 0.338,-0.174C0.333,-0.172 0.325,-0.164 0.32,-0.155C0.314,-0.147 0.309,-0.141 0.307,-0.141C0.305,-0.141 0.304,-0.139 0.306,-0.136C0.307,-0.134 0.306,-0.132 0.303,-0.132C0.3,-0.132 0.299,-0.13 0.3,-0.128C0.301,-0.126 0.299,-0.12 0.296,-0.116C0.291,-0.108 0.286,-0.105 0.286,-0.11C0.286,-0.118 0.301,-0.149 0.314,-0.17C0.347,-0.222 0.385,-0.275 0.401,-0.29C0.407,-0.295 0.411,-0.301 0.411,-0.302C0.411,-0.303 0.421,-0.315 0.432,-0.328C0.444,-0.341 0.453,-0.353 0.453,-0.355C0.453,-0.357 0.454,-0.358 0.456,-0.358C0.458,-0.358 0.472,-0.37 0.488,-0.385C0.504,-0.4 0.517,-0.412 0.517,-0.412C0.518,-0.412 0.518,-0.41 0.518,-0.407C0.518,-0.404 0.502,-0.384 0.481,-0.362ZM0.247,-0.066C0.236,-0.058 0.228,-0.064 0.228,-0.079C0.228,-0.083 0.227,-0.086 0.225,-0.086C0.223,-0.086 0.221,-0.091 0.221,-0.097C0.22,-0.103 0.222,-0.107 0.224,-0.107C0.227,-0.107 0.228,-0.106 0.227,-0.105C0.225,-0.104 0.227,-0.099 0.231,-0.094C0.234,-0.089 0.237,-0.083 0.236,-0.08C0.235,-0.071 0.237,-0.068 0.241,-0.07C0.247,-0.072 0.246,-0.083 0.239,-0.093C0.235,-0.098 0.234,-0.101 0.237,-0.101C0.24,-0.101 0.239,-0.104 0.236,-0.107C0.232,-0.11 0.228,-0.116 0.226,-0.122C0.225,-0.128 0.221,-0.131 0.218,-0.131C0.216,-0.13 0.214,-0.128 0.215,-0.126C0.215,-0.124 0.214,-0.123 0.212,-0.123C0.209,-0.123 0.207,-0.125 0.207,-0.127C0.207,-0.13 0.209,-0.132 0.212,-0.132C0.214,-0.132 0.215,-0.133 0.214,-0.134C0.213,-0.136 0.214,-0.138 0.217,-0.139C0.22,-0.14 0.219,-0.14 0.214,-0.14C0.208,-0.141 0.207,-0.142 0.209,-0.148C0.211,-0.154 0.21,-0.156 0.205,-0.158C0.2,-0.159 0.199,-0.16 0.204,-0.162C0.208,-0.164 0.208,-0.166 0.201,-0.169C0.197,-0.172 0.195,-0.174 0.198,-0.174C0.201,-0.174 0.202,-0.176 0.201,-0.178C0.199,-0.181 0.196,-0.182 0.194,-0.181C0.192,-0.18 0.191,-0.181 0.191,-0.183C0.191,-0.19 0.198,-0.188 0.204,-0.179C0.216,-0.162 0.224,-0.147 0.224,-0.144C0.224,-0.142 0.228,-0.135 0.232,-0.128C0.237,-0.122 0.24,-0.116 0.239,-0.116C0.238,-0.116 0.24,-0.11 0.245,-0.103C0.249,-0.095 0.253,-0.089 0.253,-0.088C0.253,-0.087 0.253,-0.085 0.254,-0.084C0.255,-0.078 0.252,-0.07 0.247,-0.066ZM0.254,-0.11C0.252,-0.11 0.249,-0.115 0.246,-0.12C0.243,-0.124 0.243,-0.129 0.245,-0.129C0.247,-0.129 0.249,-0.126 0.251,-0.123C0.252,-0.12 0.254,-0.116 0.256,-0.114C0.257,-0.112 0.256,-0.11 0.254,-0.11ZM0.545,-0.426C0.542,-0.425 0.54,-0.423 0.54,-0.421C0.54,-0.419 0.542,-0.419 0.545,-0.42C0.547,-0.421 0.549,-0.423 0.549,-0.425C0.549,-0.426 0.547,-0.427 0.545,-0.426ZM0.192,-0.159C0.189,-0.159 0.185,-0.168 0.188,-0.17C0.189,-0.17 0.191,-0.168 0.192,-0.165C0.193,-0.162 0.193,-0.159 0.192,-0.159ZM0.246,-0.052C0.244,-0.051 0.242,-0.052 0.242,-0.055C0.242,-0.057 0.244,-0.059 0.246,-0.059C0.247,-0.059 0.249,-0.058 0.249,-0.056C0.249,-0.055 0.247,-0.053 0.246,-0.052ZM0.426,-0.27C0.424,-0.269 0.421,-0.267 0.419,-0.267C0.413,-0.267 0.415,-0.27 0.422,-0.272C0.426,-0.273 0.427,-0.272 0.426,-0.27ZM0.405,-0.24C0.404,-0.239 0.402,-0.237 0.401,-0.237C0.4,-0.237 0.399,-0.239 0.399,-0.24C0.399,-0.242 0.401,-0.243 0.403,-0.243C0.406,-0.243 0.406,-0.242 0.405,-0.24ZM0.243,-0.039C0.242,-0.038 0.241,-0.04 0.241,-0.043C0.241,-0.046 0.242,-0.047 0.243,-0.045C0.245,-0.042 0.245,-0.04 0.243,-0.039Z" style="fill:white;fill-rule:nonzero;"/>
                </g>
                <g transform="matrix(50,0,0,50,402.689,836.304)">
                    <path fill="currentColor" d="M0.449,-0.221C0.449,-0.226 0.445,-0.227 0.431,-0.227C0.414,-0.227 0.413,-0.227 0.409,-0.216C0.406,-0.21 0.402,-0.202 0.399,-0.199C0.396,-0.196 0.39,-0.184 0.386,-0.174C0.383,-0.164 0.374,-0.148 0.368,-0.139C0.361,-0.131 0.354,-0.12 0.352,-0.116C0.347,-0.103 0.327,-0.075 0.311,-0.059C0.28,-0.028 0.205,0.014 0.181,0.014C0.173,0.014 0.145,-0.001 0.135,-0.01C0.108,-0.034 0.104,-0.043 0.094,-0.096C0.087,-0.136 0.087,-0.138 0.117,-0.161C0.134,-0.174 0.16,-0.188 0.167,-0.188C0.172,-0.188 0.234,-0.243 0.234,-0.248C0.234,-0.25 0.237,-0.253 0.24,-0.255C0.253,-0.263 0.263,-0.282 0.262,-0.299C0.262,-0.308 0.26,-0.315 0.259,-0.315C0.257,-0.315 0.254,-0.318 0.253,-0.322C0.249,-0.334 0.224,-0.339 0.17,-0.339C0.137,-0.339 0.12,-0.338 0.112,-0.335C0.105,-0.332 0.098,-0.33 0.096,-0.33C0.094,-0.33 0.089,-0.328 0.085,-0.326C0.081,-0.323 0.07,-0.317 0.061,-0.313C0.042,-0.303 0.022,-0.28 0.014,-0.258C-0.008,-0.2 -0.011,-0.187 -0.01,-0.151C-0.008,-0.104 0.003,-0.06 0.018,-0.04C0.031,-0.021 0.059,0.001 0.086,0.013C0.115,0.027 0.155,0.04 0.178,0.044C0.219,0.051 0.263,0.038 0.304,0.008C0.332,-0.012 0.367,-0.051 0.367,-0.061C0.367,-0.065 0.369,-0.068 0.371,-0.069C0.373,-0.07 0.375,-0.074 0.377,-0.079C0.38,-0.092 0.393,-0.117 0.402,-0.126C0.412,-0.137 0.421,-0.173 0.416,-0.18C0.41,-0.186 0.427,-0.209 0.44,-0.213C0.446,-0.214 0.449,-0.217 0.449,-0.221ZM0.105,-0.224C0.115,-0.254 0.133,-0.282 0.141,-0.282C0.144,-0.282 0.148,-0.284 0.149,-0.286C0.15,-0.289 0.159,-0.294 0.169,-0.299C0.178,-0.304 0.189,-0.31 0.193,-0.314C0.197,-0.317 0.2,-0.319 0.201,-0.318C0.202,-0.317 0.206,-0.313 0.209,-0.308C0.216,-0.298 0.214,-0.29 0.202,-0.279L0.177,-0.255C0.166,-0.244 0.151,-0.23 0.143,-0.224C0.135,-0.218 0.125,-0.209 0.119,-0.203C0.095,-0.18 0.091,-0.186 0.105,-0.224Z" style="fill:white;fill-rule:nonzero;"/>
                </g>
            </g>
            <g transform="matrix(5.04658,0,0,6.51105,-901.967,-10031.5)">
                <g transform="matrix(50,0,0,50,388.881,1771.69)">
                    <path fill="currentColor" d="M0.376,-0.207C0.374,-0.207 0.371,-0.21 0.369,-0.215C0.367,-0.223 0.366,-0.222 0.35,-0.204C0.341,-0.194 0.331,-0.179 0.327,-0.171C0.32,-0.155 0.308,-0.132 0.294,-0.105C0.29,-0.097 0.284,-0.086 0.283,-0.081C0.281,-0.076 0.277,-0.071 0.275,-0.07C0.273,-0.068 0.27,-0.064 0.27,-0.06C0.27,-0.056 0.268,-0.053 0.265,-0.052C0.263,-0.051 0.259,-0.044 0.255,-0.036C0.251,-0.028 0.246,-0.02 0.244,-0.017C0.241,-0.014 0.241,-0.012 0.244,-0.012C0.246,-0.012 0.245,-0.01 0.242,-0.007C0.238,-0.005 0.23,0.005 0.224,0.015C0.212,0.033 0.21,0.037 0.197,0.051C0.178,0.072 0.14,0.106 0.13,0.11C0.119,0.115 0.118,0.115 0.113,0.109C0.103,0.098 0.094,0.079 0.093,0.07C0.093,0.047 0.089,0.028 0.085,0.024C0.082,0.022 0.082,0.019 0.084,0.019C0.086,0.018 0.088,0.009 0.087,-0.002L0.087,-0.043C0.087,-0.054 0.087,-0.069 0.086,-0.074C0.086,-0.08 0.085,-0.092 0.085,-0.102C0.086,-0.134 0.085,-0.152 0.082,-0.161C0.08,-0.166 0.079,-0.182 0.08,-0.196C0.081,-0.227 0.081,-0.226 0.082,-0.233C0.083,-0.237 0.084,-0.247 0.084,-0.257C0.084,-0.267 0.085,-0.297 0.087,-0.324C0.089,-0.35 0.09,-0.377 0.09,-0.383C0.089,-0.427 0.09,-0.447 0.096,-0.462C0.099,-0.471 0.099,-0.473 0.092,-0.473C0.086,-0.474 0.085,-0.474 0.091,-0.477C0.098,-0.481 0.1,-0.493 0.105,-0.569C0.108,-0.619 0.113,-0.693 0.113,-0.699L0.126,-0.767C0.127,-0.769 0.13,-0.773 0.135,-0.776C0.139,-0.778 0.145,-0.785 0.148,-0.79C0.155,-0.801 0.16,-0.848 0.155,-0.852C0.153,-0.853 0.149,-0.858 0.146,-0.862C0.144,-0.867 0.136,-0.873 0.13,-0.875C0.124,-0.877 0.121,-0.88 0.122,-0.881C0.128,-0.885 0.072,-0.885 0.061,-0.881C0.054,-0.879 0.049,-0.874 0.044,-0.864C0.04,-0.856 0.038,-0.85 0.039,-0.849C0.04,-0.848 0.037,-0.846 0.034,-0.844C0.026,-0.84 0.024,-0.83 0.029,-0.828C0.034,-0.825 0.034,-0.798 0.031,-0.752L0.022,-0.616C0.022,-0.608 0.018,-0.557 0.013,-0.503L0.002,-0.378C0,-0.325 -0.002,-0.299 -0.005,-0.253C-0.007,-0.227 -0.008,-0.188 -0.007,-0.167C-0.005,-0.124 -0.005,-0.114 -0.005,-0.084L-0.005,-0.052C-0.003,-0.025 -0.003,-0.006 -0.003,0.009C-0.003,0.017 -0.002,0.037 0,0.054C0.004,0.087 0.01,0.1 0.033,0.116C0.048,0.128 0.097,0.148 0.103,0.145C0.105,0.145 0.108,0.145 0.109,0.147C0.113,0.152 0.144,0.15 0.168,0.143C0.193,0.136 0.222,0.116 0.233,0.098C0.237,0.09 0.245,0.08 0.25,0.075C0.255,0.07 0.258,0.065 0.257,0.064C0.256,0.062 0.257,0.061 0.259,0.061C0.264,0.062 0.281,0.033 0.279,0.027C0.278,0.025 0.279,0.022 0.281,0.021C0.284,0.02 0.286,0.017 0.286,0.014C0.286,0.011 0.291,0.004 0.296,-0.002C0.309,-0.018 0.315,-0.033 0.308,-0.034C0.302,-0.034 0.308,-0.046 0.32,-0.061C0.325,-0.067 0.33,-0.077 0.331,-0.083C0.332,-0.095 0.353,-0.134 0.365,-0.147C0.371,-0.155 0.381,-0.206 0.376,-0.207ZM0.04,-0.424C0.038,-0.424 0.036,-0.421 0.036,-0.417C0.036,-0.413 0.037,-0.41 0.037,-0.41C0.041,-0.41 0.04,-0.385 0.035,-0.369C0.033,-0.362 0.034,-0.357 0.036,-0.357C0.038,-0.357 0.037,-0.355 0.034,-0.353C0.031,-0.35 0.029,-0.343 0.029,-0.335C0.029,-0.327 0.029,-0.321 0.028,-0.321C0.024,-0.321 0.019,-0.331 0.02,-0.337C0.02,-0.341 0.021,-0.353 0.022,-0.364L0.026,-0.406C0.028,-0.418 0.028,-0.43 0.026,-0.432C0.025,-0.434 0.025,-0.436 0.027,-0.437C0.029,-0.438 0.032,-0.453 0.034,-0.472C0.038,-0.504 0.038,-0.505 0.046,-0.504C0.056,-0.502 0.059,-0.495 0.05,-0.496C0.044,-0.496 0.043,-0.494 0.045,-0.489C0.048,-0.481 0.046,-0.46 0.04,-0.453C0.038,-0.449 0.039,-0.448 0.043,-0.448C0.049,-0.447 0.049,-0.446 0.045,-0.44C0.042,-0.436 0.041,-0.431 0.042,-0.428C0.043,-0.425 0.042,-0.424 0.04,-0.424ZM0.024,-0.267C0.022,-0.265 0.021,-0.259 0.023,-0.255C0.024,-0.25 0.023,-0.246 0.021,-0.246C0.018,-0.246 0.016,-0.26 0.017,-0.273C0.018,-0.301 0.02,-0.314 0.023,-0.316C0.026,-0.32 0.026,-0.314 0.024,-0.29C0.024,-0.283 0.024,-0.276 0.026,-0.274C0.027,-0.273 0.026,-0.269 0.024,-0.267ZM0.069,-0.528C0.073,-0.558 0.073,-0.559 0.075,-0.543C0.077,-0.525 0.077,-0.526 0.074,-0.508C0.073,-0.501 0.07,-0.495 0.068,-0.495C0.066,-0.495 0.066,-0.51 0.069,-0.528ZM0.019,0.013C0.017,0.013 0.015,0.013 0.015,0.012C0.016,-0.014 0.015,-0.026 0.014,-0.035C0.014,-0.042 0.014,-0.044 0.017,-0.042C0.019,-0.04 0.021,-0.029 0.021,-0.018C0.021,-0.006 0.021,0.005 0.022,0.007C0.023,0.009 0.021,0.012 0.019,0.013ZM0.015,-0.227C0.016,-0.236 0.018,-0.243 0.02,-0.243C0.022,-0.243 0.022,-0.237 0.021,-0.229C0.018,-0.21 0.013,-0.209 0.015,-0.227ZM0.076,-0.378C0.075,-0.379 0.071,-0.378 0.068,-0.374C0.065,-0.37 0.062,-0.369 0.057,-0.372C0.053,-0.374 0.053,-0.375 0.059,-0.375C0.065,-0.374 0.066,-0.375 0.063,-0.378C0.06,-0.381 0.062,-0.382 0.07,-0.382C0.075,-0.382 0.079,-0.381 0.079,-0.379C0.079,-0.377 0.078,-0.377 0.076,-0.378ZM0.013,-0.18C0.013,-0.195 0.018,-0.197 0.019,-0.183C0.019,-0.178 0.018,-0.172 0.016,-0.17C0.014,-0.168 0.013,-0.173 0.013,-0.18ZM0.059,-0.421C0.055,-0.424 0.061,-0.435 0.066,-0.435C0.068,-0.435 0.069,-0.434 0.069,-0.432C0.067,-0.427 0.061,-0.42 0.059,-0.421ZM0.071,-0.589C0.073,-0.6 0.079,-0.598 0.078,-0.587C0.077,-0.583 0.075,-0.579 0.074,-0.58C0.072,-0.58 0.071,-0.584 0.071,-0.589ZM0.085,-0.462C0.085,-0.46 0.08,-0.458 0.074,-0.456C0.067,-0.454 0.063,-0.454 0.064,-0.456C0.064,-0.458 0.067,-0.459 0.07,-0.459C0.074,-0.459 0.077,-0.46 0.077,-0.462C0.077,-0.463 0.079,-0.465 0.081,-0.464C0.084,-0.464 0.085,-0.463 0.085,-0.462ZM0.055,-0.299C0.049,-0.299 0.045,-0.301 0.045,-0.302C0.045,-0.304 0.05,-0.304 0.055,-0.303C0.061,-0.302 0.066,-0.301 0.065,-0.3C0.065,-0.299 0.061,-0.299 0.055,-0.299ZM0.056,-0.361C0.056,-0.359 0.054,-0.357 0.052,-0.357C0.049,-0.357 0.048,-0.36 0.048,-0.363C0.049,-0.366 0.051,-0.368 0.053,-0.367C0.055,-0.366 0.056,-0.363 0.056,-0.361ZM0.016,-0.208C0.02,-0.21 0.021,-0.209 0.02,-0.204C0.02,-0.197 0.017,-0.196 0.014,-0.201C0.012,-0.203 0.013,-0.206 0.016,-0.208ZM0.013,-0.075C0.013,-0.078 0.016,-0.08 0.018,-0.08C0.02,-0.08 0.022,-0.078 0.021,-0.075C0.021,-0.073 0.019,-0.071 0.017,-0.071C0.014,-0.071 0.013,-0.073 0.013,-0.075ZM0.06,-0.395C0.065,-0.394 0.068,-0.393 0.068,-0.392C0.068,-0.388 0.056,-0.389 0.054,-0.393C0.053,-0.394 0.056,-0.395 0.06,-0.395ZM0.039,-0.514C0.041,-0.516 0.044,-0.517 0.046,-0.517C0.048,-0.517 0.05,-0.516 0.05,-0.514C0.05,-0.512 0.046,-0.511 0.043,-0.511C0.039,-0.511 0.038,-0.513 0.039,-0.514ZM0.035,-0.014C0.035,-0.017 0.036,-0.019 0.037,-0.019C0.038,-0.019 0.04,-0.017 0.041,-0.014C0.042,-0.011 0.041,-0.009 0.038,-0.01C0.036,-0.01 0.035,-0.012 0.035,-0.014ZM0.063,-0.485C0.063,-0.487 0.064,-0.489 0.065,-0.489C0.066,-0.489 0.068,-0.487 0.069,-0.485C0.07,-0.482 0.069,-0.48 0.066,-0.48C0.064,-0.48 0.063,-0.482 0.063,-0.485ZM0.057,-0.413C0.059,-0.416 0.067,-0.416 0.067,-0.412C0.067,-0.412 0.064,-0.411 0.06,-0.41C0.056,-0.409 0.055,-0.41 0.057,-0.413ZM0.051,-0.544C0.053,-0.546 0.056,-0.547 0.058,-0.547C0.061,-0.547 0.061,-0.545 0.06,-0.544C0.058,-0.542 0.055,-0.541 0.053,-0.541C0.05,-0.541 0.05,-0.542 0.051,-0.544ZM0.074,-0.574C0.076,-0.573 0.078,-0.571 0.077,-0.569C0.077,-0.566 0.076,-0.564 0.075,-0.564C0.074,-0.564 0.073,-0.567 0.072,-0.569C0.071,-0.572 0.072,-0.574 0.074,-0.574ZM0.04,-0.523C0.043,-0.526 0.051,-0.524 0.051,-0.521C0.051,-0.521 0.048,-0.52 0.044,-0.52C0.04,-0.52 0.039,-0.522 0.04,-0.523ZM0.081,-0.431C0.079,-0.431 0.077,-0.433 0.078,-0.435C0.078,-0.436 0.08,-0.437 0.082,-0.436C0.084,-0.435 0.086,-0.433 0.086,-0.432C0.086,-0.432 0.084,-0.431 0.081,-0.431ZM0.079,-0.41C0.077,-0.41 0.075,-0.412 0.075,-0.414C0.075,-0.415 0.077,-0.416 0.079,-0.415C0.082,-0.414 0.083,-0.412 0.083,-0.411C0.083,-0.411 0.081,-0.41 0.079,-0.41ZM0.072,-0.446C0.074,-0.445 0.072,-0.444 0.066,-0.444C0.061,-0.444 0.058,-0.445 0.061,-0.446C0.064,-0.447 0.069,-0.447 0.072,-0.446ZM0.046,-0.327C0.047,-0.328 0.05,-0.33 0.051,-0.33C0.052,-0.329 0.052,-0.328 0.052,-0.326C0.052,-0.325 0.05,-0.324 0.047,-0.324C0.045,-0.324 0.044,-0.325 0.046,-0.327ZM0.074,-0.422C0.076,-0.424 0.078,-0.425 0.079,-0.425C0.08,-0.425 0.081,-0.424 0.08,-0.422C0.08,-0.421 0.078,-0.419 0.076,-0.419C0.073,-0.419 0.073,-0.421 0.074,-0.422ZM0.038,0.014C0.036,0.013 0.036,0.01 0.037,0.01C0.039,0.009 0.04,0.011 0.041,0.013C0.044,0.018 0.041,0.019 0.038,0.014ZM0.017,-0.085C0.016,-0.083 0.015,-0.085 0.015,-0.089C0.016,-0.093 0.017,-0.095 0.018,-0.093C0.019,-0.09 0.018,-0.087 0.017,-0.085ZM0.057,0.024C0.052,0.024 0.051,0.023 0.055,0.022C0.058,0.021 0.061,0.022 0.063,0.023C0.064,0.024 0.061,0.024 0.057,0.024ZM0.067,-0.438C0.062,-0.438 0.062,-0.439 0.065,-0.44C0.068,-0.441 0.072,-0.44 0.073,-0.439C0.074,-0.438 0.072,-0.438 0.067,-0.438ZM0.02,0.025C0.019,0.026 0.018,0.024 0.018,0.021C0.019,0.018 0.02,0.017 0.021,0.02C0.022,0.022 0.022,0.024 0.02,0.025Z" style="fill:white;fill-rule:nonzero;"/>
                </g>
                <g transform="matrix(50,0,0,50,406.631,1771.69)">
                    <path fill="currentColor" d="M0.524,-0.259C0.519,-0.261 0.519,-0.263 0.523,-0.269C0.53,-0.279 0.525,-0.279 0.504,-0.268C0.494,-0.263 0.485,-0.259 0.483,-0.259C0.481,-0.259 0.472,-0.255 0.463,-0.25C0.437,-0.237 0.401,-0.228 0.369,-0.228C0.328,-0.228 0.299,-0.239 0.269,-0.266C0.246,-0.286 0.245,-0.287 0.245,-0.304C0.245,-0.314 0.247,-0.325 0.249,-0.33C0.252,-0.335 0.252,-0.34 0.249,-0.345C0.247,-0.349 0.245,-0.357 0.244,-0.362C0.243,-0.368 0.239,-0.379 0.236,-0.388C0.232,-0.397 0.23,-0.404 0.232,-0.404C0.233,-0.404 0.232,-0.406 0.229,-0.408C0.226,-0.411 0.225,-0.413 0.226,-0.413C0.228,-0.413 0.224,-0.417 0.217,-0.421C0.205,-0.429 0.203,-0.43 0.176,-0.429C0.154,-0.428 0.145,-0.426 0.138,-0.421C0.128,-0.415 0.128,-0.413 0.131,-0.388L0.133,-0.362L0.122,-0.362C0.116,-0.362 0.109,-0.364 0.106,-0.366C0.102,-0.37 0.1,-0.37 0.087,-0.365C0.079,-0.362 0.073,-0.359 0.072,-0.357C0.072,-0.355 0.065,-0.345 0.057,-0.334C0.044,-0.318 0.028,-0.294 0.027,-0.289C0.027,-0.288 0.022,-0.281 0.018,-0.274C-0.004,-0.24 -0.024,-0.143 -0.017,-0.107C-0.01,-0.075 -0.008,-0.067 0,-0.057C0.009,-0.045 0.018,-0.035 0.022,-0.035C0.023,-0.035 0.031,-0.031 0.039,-0.026C0.048,-0.02 0.06,-0.014 0.068,-0.012C0.087,-0.007 0.117,-0.008 0.134,-0.014C0.16,-0.023 0.185,-0.051 0.19,-0.076C0.191,-0.081 0.198,-0.097 0.206,-0.111C0.214,-0.125 0.222,-0.144 0.225,-0.153C0.227,-0.162 0.231,-0.173 0.233,-0.177C0.235,-0.182 0.238,-0.192 0.239,-0.202C0.241,-0.211 0.243,-0.219 0.244,-0.219C0.244,-0.22 0.243,-0.222 0.241,-0.225C0.233,-0.231 0.24,-0.229 0.259,-0.22C0.331,-0.186 0.4,-0.183 0.469,-0.209C0.496,-0.22 0.52,-0.236 0.52,-0.244C0.52,-0.246 0.522,-0.25 0.525,-0.252C0.529,-0.255 0.529,-0.257 0.524,-0.259ZM0.202,-0.234L0.193,-0.205C0.189,-0.188 0.178,-0.153 0.174,-0.141C0.165,-0.12 0.129,-0.068 0.114,-0.057C0.097,-0.043 0.095,-0.043 0.087,-0.049C0.084,-0.052 0.083,-0.054 0.084,-0.054C0.086,-0.054 0.084,-0.059 0.081,-0.065C0.074,-0.08 0.073,-0.139 0.079,-0.159C0.086,-0.18 0.095,-0.199 0.101,-0.206C0.104,-0.209 0.108,-0.218 0.11,-0.225C0.111,-0.232 0.115,-0.238 0.117,-0.239C0.119,-0.24 0.12,-0.244 0.12,-0.248C0.12,-0.252 0.122,-0.256 0.124,-0.257C0.127,-0.258 0.135,-0.269 0.143,-0.282C0.152,-0.294 0.159,-0.304 0.16,-0.304C0.16,-0.303 0.172,-0.291 0.185,-0.277L0.209,-0.252L0.202,-0.234Z" style="fill:white;fill-rule:nonzero;"/>
                </g>
                <g transform="matrix(50,0,0,50,431.431,1771.69)">
                    <path fill="currentColor" d="M0.527,-0.25C0.525,-0.25 0.522,-0.247 0.52,-0.244L0.506,-0.231C0.501,-0.226 0.497,-0.221 0.498,-0.219C0.499,-0.218 0.497,-0.216 0.492,-0.216C0.487,-0.216 0.488,-0.215 0.495,-0.213C0.504,-0.211 0.504,-0.211 0.495,-0.211C0.49,-0.21 0.482,-0.206 0.475,-0.2C0.458,-0.184 0.427,-0.153 0.414,-0.138C0.401,-0.123 0.381,-0.105 0.349,-0.081C0.337,-0.072 0.328,-0.064 0.327,-0.062C0.327,-0.061 0.322,-0.056 0.316,-0.052L0.284,-0.032C0.261,-0.016 0.24,-0.005 0.236,-0.005C0.234,-0.005 0.225,-0.001 0.215,0.004C0.205,0.01 0.189,0.015 0.174,0.017L0.151,0.02L0.136,0.009C0.123,-0 0.118,-0.008 0.112,-0.027C0.1,-0.063 0.089,-0.114 0.091,-0.123C0.092,-0.128 0.092,-0.132 0.09,-0.133C0.087,-0.135 0.106,-0.218 0.114,-0.236C0.126,-0.264 0.14,-0.298 0.145,-0.314C0.15,-0.331 0.169,-0.358 0.175,-0.358C0.177,-0.358 0.179,-0.361 0.179,-0.364C0.18,-0.367 0.188,-0.374 0.198,-0.38C0.222,-0.394 0.234,-0.402 0.245,-0.41L0.253,-0.417L0.271,-0.401C0.28,-0.392 0.288,-0.384 0.287,-0.383C0.286,-0.382 0.286,-0.376 0.287,-0.37C0.287,-0.364 0.286,-0.349 0.283,-0.337C0.279,-0.317 0.279,-0.314 0.286,-0.313C0.29,-0.313 0.296,-0.314 0.298,-0.317C0.301,-0.32 0.306,-0.322 0.309,-0.322C0.316,-0.322 0.33,-0.349 0.328,-0.359C0.327,-0.363 0.327,-0.366 0.327,-0.382C0.327,-0.39 0.326,-0.398 0.324,-0.399C0.322,-0.4 0.321,-0.403 0.322,-0.407C0.323,-0.41 0.317,-0.416 0.308,-0.421C0.299,-0.425 0.291,-0.43 0.29,-0.431C0.287,-0.436 0.239,-0.439 0.214,-0.436C0.2,-0.435 0.183,-0.433 0.176,-0.433C0.146,-0.43 0.078,-0.396 0.075,-0.38C0.074,-0.376 0.071,-0.373 0.069,-0.373C0.067,-0.373 0.065,-0.372 0.064,-0.37C0.064,-0.369 0.06,-0.364 0.057,-0.359C0.053,-0.354 0.05,-0.35 0.05,-0.348C0.05,-0.347 0.047,-0.342 0.042,-0.337C0.037,-0.332 0.034,-0.327 0.034,-0.326C0.034,-0.325 0.024,-0.298 0.016,-0.278C0.004,-0.247 -0.014,-0.176 -0.014,-0.155C-0.015,-0.12 0.014,-0.011 0.024,-0.011C0.027,-0.011 0.028,-0.009 0.027,-0.006C0.027,-0.004 0.028,-0.002 0.03,-0.002C0.032,-0.002 0.038,0.004 0.044,0.011C0.056,0.026 0.096,0.044 0.134,0.051C0.147,0.053 0.159,0.055 0.161,0.055C0.173,0.056 0.243,0.045 0.249,0.042C0.253,0.04 0.268,0.034 0.282,0.03C0.306,0.023 0.342,0.001 0.344,-0.007C0.344,-0.009 0.348,-0.011 0.353,-0.012C0.358,-0.013 0.364,-0.016 0.366,-0.019C0.368,-0.022 0.371,-0.025 0.373,-0.026C0.375,-0.027 0.387,-0.038 0.401,-0.05L0.436,-0.081C0.442,-0.086 0.447,-0.092 0.448,-0.094L0.459,-0.107C0.464,-0.112 0.468,-0.118 0.468,-0.119C0.468,-0.122 0.475,-0.131 0.484,-0.141C0.488,-0.145 0.491,-0.15 0.49,-0.152C0.49,-0.154 0.491,-0.158 0.494,-0.16C0.496,-0.162 0.501,-0.172 0.504,-0.182C0.506,-0.192 0.51,-0.204 0.512,-0.209C0.514,-0.215 0.514,-0.218 0.512,-0.218C0.504,-0.214 0.507,-0.222 0.518,-0.235C0.525,-0.243 0.529,-0.25 0.527,-0.25ZM0.105,-0.012C0.092,-0.031 0.084,-0.051 0.079,-0.08C0.076,-0.094 0.072,-0.107 0.071,-0.109C0.064,-0.117 0.075,-0.201 0.084,-0.212C0.094,-0.225 0.096,-0.219 0.089,-0.187C0.085,-0.169 0.081,-0.152 0.081,-0.148C0.079,-0.139 0.08,-0.11 0.083,-0.103C0.084,-0.1 0.086,-0.092 0.087,-0.085C0.088,-0.078 0.09,-0.069 0.092,-0.064C0.094,-0.059 0.096,-0.053 0.096,-0.05C0.096,-0.048 0.098,-0.045 0.099,-0.044C0.101,-0.043 0.102,-0.04 0.102,-0.037C0.102,-0.033 0.104,-0.026 0.107,-0.021C0.112,-0.011 0.11,-0.003 0.105,-0.012ZM0.436,-0.147C0.433,-0.143 0.429,-0.138 0.426,-0.136C0.423,-0.134 0.423,-0.136 0.426,-0.141C0.429,-0.145 0.433,-0.15 0.436,-0.151C0.439,-0.153 0.439,-0.152 0.436,-0.147ZM0.479,-0.192C0.478,-0.19 0.475,-0.189 0.474,-0.189C0.473,-0.189 0.473,-0.19 0.473,-0.192C0.474,-0.194 0.476,-0.195 0.478,-0.195C0.481,-0.195 0.481,-0.194 0.479,-0.192ZM0.096,-0.234C0.098,-0.234 0.1,-0.233 0.099,-0.231C0.099,-0.23 0.098,-0.228 0.097,-0.228C0.096,-0.228 0.094,-0.23 0.093,-0.231C0.092,-0.233 0.093,-0.234 0.096,-0.234ZM0.451,-0.161C0.447,-0.155 0.444,-0.154 0.445,-0.159C0.445,-0.16 0.447,-0.162 0.45,-0.163C0.453,-0.164 0.453,-0.163 0.451,-0.161Z" style="fill:white;fill-rule:nonzero;"/>
                </g>
                <g transform="matrix(50,0,0,50,456.481,1771.69)">
                    <path fill="currentColor" d="M0.507,0.117C0.502,0.113 0.497,0.107 0.497,0.105C0.497,0.103 0.493,0.097 0.488,0.092C0.484,0.086 0.481,0.08 0.482,0.079C0.484,0.077 0.483,0.075 0.481,0.075C0.479,0.075 0.478,0.073 0.478,0.07C0.478,0.067 0.476,0.059 0.474,0.051L0.47,0.023C0.469,0.014 0.467,0.004 0.465,-0.001C0.46,-0.02 0.457,-0.101 0.462,-0.131C0.463,-0.141 0.468,-0.159 0.473,-0.17C0.477,-0.181 0.479,-0.192 0.478,-0.194C0.476,-0.196 0.477,-0.196 0.479,-0.195C0.484,-0.193 0.485,-0.196 0.49,-0.222C0.491,-0.227 0.494,-0.236 0.497,-0.242C0.499,-0.249 0.5,-0.255 0.499,-0.256C0.498,-0.258 0.499,-0.26 0.501,-0.261C0.503,-0.262 0.505,-0.266 0.505,-0.27C0.505,-0.273 0.507,-0.287 0.509,-0.3C0.515,-0.336 0.515,-0.337 0.499,-0.35C0.485,-0.361 0.482,-0.362 0.467,-0.361C0.457,-0.36 0.448,-0.361 0.444,-0.363C0.439,-0.366 0.437,-0.366 0.435,-0.363C0.434,-0.36 0.429,-0.36 0.42,-0.361C0.408,-0.363 0.407,-0.362 0.402,-0.352C0.391,-0.331 0.307,-0.233 0.289,-0.22C0.278,-0.213 0.198,-0.126 0.193,-0.116C0.191,-0.112 0.188,-0.109 0.186,-0.108C0.184,-0.108 0.174,-0.099 0.163,-0.089C0.144,-0.071 0.096,-0.036 0.09,-0.036C0.086,-0.036 0.088,-0.056 0.092,-0.063C0.093,-0.066 0.094,-0.07 0.094,-0.072C0.093,-0.073 0.095,-0.076 0.097,-0.077C0.1,-0.078 0.102,-0.081 0.102,-0.085C0.102,-0.102 0.145,-0.179 0.176,-0.216C0.183,-0.224 0.192,-0.236 0.197,-0.243C0.202,-0.25 0.21,-0.259 0.216,-0.263C0.222,-0.268 0.226,-0.274 0.226,-0.276C0.226,-0.279 0.228,-0.281 0.23,-0.281C0.232,-0.281 0.237,-0.286 0.239,-0.291C0.242,-0.297 0.246,-0.302 0.248,-0.302C0.249,-0.302 0.258,-0.31 0.266,-0.321L0.289,-0.346C0.294,-0.349 0.302,-0.356 0.308,-0.361C0.314,-0.366 0.326,-0.377 0.334,-0.386C0.342,-0.396 0.35,-0.404 0.351,-0.405C0.356,-0.407 0.372,-0.426 0.372,-0.428C0.373,-0.436 0.407,-0.453 0.423,-0.453C0.435,-0.453 0.459,-0.417 0.466,-0.391C0.469,-0.38 0.473,-0.374 0.48,-0.374C0.493,-0.374 0.497,-0.388 0.487,-0.402C0.485,-0.406 0.482,-0.414 0.482,-0.419C0.482,-0.424 0.481,-0.429 0.479,-0.429C0.478,-0.429 0.477,-0.431 0.478,-0.433C0.482,-0.44 0.462,-0.457 0.441,-0.465C0.426,-0.47 0.411,-0.473 0.39,-0.474C0.365,-0.475 0.357,-0.473 0.331,-0.465C0.314,-0.46 0.298,-0.456 0.296,-0.456C0.283,-0.456 0.217,-0.4 0.178,-0.355C0.169,-0.345 0.16,-0.336 0.157,-0.334C0.154,-0.332 0.147,-0.323 0.141,-0.314L0.114,-0.281C0.106,-0.272 0.096,-0.259 0.092,-0.252C0.088,-0.245 0.082,-0.236 0.078,-0.231C0.061,-0.208 0.05,-0.19 0.039,-0.166C0.032,-0.152 0.022,-0.131 0.017,-0.119C0.003,-0.091 -0.004,-0.063 0,-0.046C0.002,-0.034 0.006,-0.029 0.023,-0.018C0.04,-0.007 0.048,-0.003 0.063,-0.002C0.11,0.003 0.13,-0.001 0.152,-0.019L0.182,-0.044C0.19,-0.051 0.197,-0.058 0.197,-0.059C0.197,-0.061 0.204,-0.069 0.212,-0.078C0.22,-0.087 0.226,-0.095 0.226,-0.097C0.226,-0.098 0.228,-0.1 0.23,-0.1C0.232,-0.1 0.236,-0.105 0.239,-0.111C0.244,-0.123 0.271,-0.151 0.277,-0.151C0.279,-0.151 0.28,-0.152 0.28,-0.154C0.28,-0.155 0.285,-0.16 0.291,-0.165C0.313,-0.182 0.323,-0.193 0.32,-0.197C0.318,-0.199 0.318,-0.2 0.32,-0.199C0.322,-0.197 0.33,-0.203 0.338,-0.211C0.346,-0.219 0.355,-0.226 0.358,-0.227C0.361,-0.229 0.363,-0.231 0.361,-0.233C0.36,-0.234 0.361,-0.235 0.363,-0.235C0.364,-0.235 0.369,-0.24 0.373,-0.245C0.384,-0.258 0.388,-0.256 0.384,-0.238C0.375,-0.205 0.376,-0.208 0.37,-0.107C0.368,-0.062 0.375,0.015 0.385,0.038C0.387,0.043 0.389,0.053 0.391,0.06C0.398,0.105 0.432,0.137 0.485,0.15C0.526,0.158 0.516,0.122 0.507,0.117Z" style="fill:white;fill-rule:nonzero;"/>
                </g>
                <g transform="matrix(50,0,0,50,485.231,1771.69)">
                    <path fill="currentColor" d="M0.376,-0.207C0.374,-0.207 0.371,-0.21 0.369,-0.215C0.367,-0.223 0.366,-0.222 0.35,-0.204C0.341,-0.194 0.331,-0.179 0.327,-0.171C0.32,-0.155 0.308,-0.132 0.294,-0.105C0.29,-0.097 0.284,-0.086 0.283,-0.081C0.281,-0.076 0.277,-0.071 0.275,-0.07C0.273,-0.068 0.27,-0.064 0.27,-0.06C0.27,-0.056 0.268,-0.053 0.265,-0.052C0.263,-0.051 0.259,-0.044 0.255,-0.036C0.251,-0.028 0.246,-0.02 0.244,-0.017C0.241,-0.014 0.241,-0.012 0.244,-0.012C0.246,-0.012 0.245,-0.01 0.242,-0.007C0.238,-0.005 0.23,0.005 0.224,0.015C0.212,0.033 0.21,0.037 0.197,0.051C0.178,0.072 0.14,0.106 0.13,0.11C0.119,0.115 0.118,0.115 0.113,0.109C0.103,0.098 0.094,0.079 0.093,0.07C0.093,0.047 0.089,0.028 0.085,0.024C0.082,0.022 0.082,0.019 0.084,0.019C0.086,0.018 0.088,0.009 0.087,-0.002L0.087,-0.043C0.087,-0.054 0.087,-0.069 0.086,-0.074C0.086,-0.08 0.085,-0.092 0.085,-0.102C0.086,-0.134 0.085,-0.152 0.082,-0.161C0.08,-0.166 0.079,-0.182 0.08,-0.196C0.081,-0.227 0.081,-0.226 0.082,-0.233C0.083,-0.237 0.084,-0.247 0.084,-0.257C0.084,-0.267 0.085,-0.297 0.087,-0.324C0.089,-0.35 0.09,-0.377 0.09,-0.383C0.089,-0.427 0.09,-0.447 0.096,-0.462C0.099,-0.471 0.099,-0.473 0.092,-0.473C0.086,-0.474 0.085,-0.474 0.091,-0.477C0.098,-0.481 0.1,-0.493 0.105,-0.569C0.108,-0.619 0.113,-0.693 0.113,-0.699L0.126,-0.767C0.127,-0.769 0.13,-0.773 0.135,-0.776C0.139,-0.778 0.145,-0.785 0.148,-0.79C0.155,-0.801 0.16,-0.848 0.155,-0.852C0.153,-0.853 0.149,-0.858 0.146,-0.862C0.144,-0.867 0.136,-0.873 0.13,-0.875C0.124,-0.877 0.121,-0.88 0.122,-0.881C0.128,-0.885 0.072,-0.885 0.061,-0.881C0.054,-0.879 0.049,-0.874 0.044,-0.864C0.04,-0.856 0.038,-0.85 0.039,-0.849C0.04,-0.848 0.037,-0.846 0.034,-0.844C0.026,-0.84 0.024,-0.83 0.029,-0.828C0.034,-0.825 0.034,-0.798 0.031,-0.752L0.022,-0.616C0.022,-0.608 0.018,-0.557 0.013,-0.503L0.002,-0.378C0,-0.325 -0.002,-0.299 -0.005,-0.253C-0.007,-0.227 -0.008,-0.188 -0.007,-0.167C-0.005,-0.124 -0.005,-0.114 -0.005,-0.084L-0.005,-0.052C-0.003,-0.025 -0.003,-0.006 -0.003,0.009C-0.003,0.017 -0.002,0.037 0,0.054C0.004,0.087 0.01,0.1 0.033,0.116C0.048,0.128 0.097,0.148 0.103,0.145C0.105,0.145 0.108,0.145 0.109,0.147C0.113,0.152 0.144,0.15 0.168,0.143C0.193,0.136 0.222,0.116 0.233,0.098C0.237,0.09 0.245,0.08 0.25,0.075C0.255,0.07 0.258,0.065 0.257,0.064C0.256,0.062 0.257,0.061 0.259,0.061C0.264,0.062 0.281,0.033 0.279,0.027C0.278,0.025 0.279,0.022 0.281,0.021C0.284,0.02 0.286,0.017 0.286,0.014C0.286,0.011 0.291,0.004 0.296,-0.002C0.309,-0.018 0.315,-0.033 0.308,-0.034C0.302,-0.034 0.308,-0.046 0.32,-0.061C0.325,-0.067 0.33,-0.077 0.331,-0.083C0.332,-0.095 0.353,-0.134 0.365,-0.147C0.371,-0.155 0.381,-0.206 0.376,-0.207ZM0.04,-0.424C0.038,-0.424 0.036,-0.421 0.036,-0.417C0.036,-0.413 0.037,-0.41 0.037,-0.41C0.041,-0.41 0.04,-0.385 0.035,-0.369C0.033,-0.362 0.034,-0.357 0.036,-0.357C0.038,-0.357 0.037,-0.355 0.034,-0.353C0.031,-0.35 0.029,-0.343 0.029,-0.335C0.029,-0.327 0.029,-0.321 0.028,-0.321C0.024,-0.321 0.019,-0.331 0.02,-0.337C0.02,-0.341 0.021,-0.353 0.022,-0.364L0.026,-0.406C0.028,-0.418 0.028,-0.43 0.026,-0.432C0.025,-0.434 0.025,-0.436 0.027,-0.437C0.029,-0.438 0.032,-0.453 0.034,-0.472C0.038,-0.504 0.038,-0.505 0.046,-0.504C0.056,-0.502 0.059,-0.495 0.05,-0.496C0.044,-0.496 0.043,-0.494 0.045,-0.489C0.048,-0.481 0.046,-0.46 0.04,-0.453C0.038,-0.449 0.039,-0.448 0.043,-0.448C0.049,-0.447 0.049,-0.446 0.045,-0.44C0.042,-0.436 0.041,-0.431 0.042,-0.428C0.043,-0.425 0.042,-0.424 0.04,-0.424ZM0.024,-0.267C0.022,-0.265 0.021,-0.259 0.023,-0.255C0.024,-0.25 0.023,-0.246 0.021,-0.246C0.018,-0.246 0.016,-0.26 0.017,-0.273C0.018,-0.301 0.02,-0.314 0.023,-0.316C0.026,-0.32 0.026,-0.314 0.024,-0.29C0.024,-0.283 0.024,-0.276 0.026,-0.274C0.027,-0.273 0.026,-0.269 0.024,-0.267ZM0.069,-0.528C0.073,-0.558 0.073,-0.559 0.075,-0.543C0.077,-0.525 0.077,-0.526 0.074,-0.508C0.073,-0.501 0.07,-0.495 0.068,-0.495C0.066,-0.495 0.066,-0.51 0.069,-0.528ZM0.019,0.013C0.017,0.013 0.015,0.013 0.015,0.012C0.016,-0.014 0.015,-0.026 0.014,-0.035C0.014,-0.042 0.014,-0.044 0.017,-0.042C0.019,-0.04 0.021,-0.029 0.021,-0.018C0.021,-0.006 0.021,0.005 0.022,0.007C0.023,0.009 0.021,0.012 0.019,0.013ZM0.015,-0.227C0.016,-0.236 0.018,-0.243 0.02,-0.243C0.022,-0.243 0.022,-0.237 0.021,-0.229C0.018,-0.21 0.013,-0.209 0.015,-0.227ZM0.076,-0.378C0.075,-0.379 0.071,-0.378 0.068,-0.374C0.065,-0.37 0.062,-0.369 0.057,-0.372C0.053,-0.374 0.053,-0.375 0.059,-0.375C0.065,-0.374 0.066,-0.375 0.063,-0.378C0.06,-0.381 0.062,-0.382 0.07,-0.382C0.075,-0.382 0.079,-0.381 0.079,-0.379C0.079,-0.377 0.078,-0.377 0.076,-0.378ZM0.013,-0.18C0.013,-0.195 0.018,-0.197 0.019,-0.183C0.019,-0.178 0.018,-0.172 0.016,-0.17C0.014,-0.168 0.013,-0.173 0.013,-0.18ZM0.059,-0.421C0.055,-0.424 0.061,-0.435 0.066,-0.435C0.068,-0.435 0.069,-0.434 0.069,-0.432C0.067,-0.427 0.061,-0.42 0.059,-0.421ZM0.071,-0.589C0.073,-0.6 0.079,-0.598 0.078,-0.587C0.077,-0.583 0.075,-0.579 0.074,-0.58C0.072,-0.58 0.071,-0.584 0.071,-0.589ZM0.085,-0.462C0.085,-0.46 0.08,-0.458 0.074,-0.456C0.067,-0.454 0.063,-0.454 0.064,-0.456C0.064,-0.458 0.067,-0.459 0.07,-0.459C0.074,-0.459 0.077,-0.46 0.077,-0.462C0.077,-0.463 0.079,-0.465 0.081,-0.464C0.084,-0.464 0.085,-0.463 0.085,-0.462ZM0.055,-0.299C0.049,-0.299 0.045,-0.301 0.045,-0.302C0.045,-0.304 0.05,-0.304 0.055,-0.303C0.061,-0.302 0.066,-0.301 0.065,-0.3C0.065,-0.299 0.061,-0.299 0.055,-0.299ZM0.056,-0.361C0.056,-0.359 0.054,-0.357 0.052,-0.357C0.049,-0.357 0.048,-0.36 0.048,-0.363C0.049,-0.366 0.051,-0.368 0.053,-0.367C0.055,-0.366 0.056,-0.363 0.056,-0.361ZM0.016,-0.208C0.02,-0.21 0.021,-0.209 0.02,-0.204C0.02,-0.197 0.017,-0.196 0.014,-0.201C0.012,-0.203 0.013,-0.206 0.016,-0.208ZM0.013,-0.075C0.013,-0.078 0.016,-0.08 0.018,-0.08C0.02,-0.08 0.022,-0.078 0.021,-0.075C0.021,-0.073 0.019,-0.071 0.017,-0.071C0.014,-0.071 0.013,-0.073 0.013,-0.075ZM0.06,-0.395C0.065,-0.394 0.068,-0.393 0.068,-0.392C0.068,-0.388 0.056,-0.389 0.054,-0.393C0.053,-0.394 0.056,-0.395 0.06,-0.395ZM0.039,-0.514C0.041,-0.516 0.044,-0.517 0.046,-0.517C0.048,-0.517 0.05,-0.516 0.05,-0.514C0.05,-0.512 0.046,-0.511 0.043,-0.511C0.039,-0.511 0.038,-0.513 0.039,-0.514ZM0.035,-0.014C0.035,-0.017 0.036,-0.019 0.037,-0.019C0.038,-0.019 0.04,-0.017 0.041,-0.014C0.042,-0.011 0.041,-0.009 0.038,-0.01C0.036,-0.01 0.035,-0.012 0.035,-0.014ZM0.063,-0.485C0.063,-0.487 0.064,-0.489 0.065,-0.489C0.066,-0.489 0.068,-0.487 0.069,-0.485C0.07,-0.482 0.069,-0.48 0.066,-0.48C0.064,-0.48 0.063,-0.482 0.063,-0.485ZM0.057,-0.413C0.059,-0.416 0.067,-0.416 0.067,-0.412C0.067,-0.412 0.064,-0.411 0.06,-0.41C0.056,-0.409 0.055,-0.41 0.057,-0.413ZM0.051,-0.544C0.053,-0.546 0.056,-0.547 0.058,-0.547C0.061,-0.547 0.061,-0.545 0.06,-0.544C0.058,-0.542 0.055,-0.541 0.053,-0.541C0.05,-0.541 0.05,-0.542 0.051,-0.544ZM0.074,-0.574C0.076,-0.573 0.078,-0.571 0.077,-0.569C0.077,-0.566 0.076,-0.564 0.075,-0.564C0.074,-0.564 0.073,-0.567 0.072,-0.569C0.071,-0.572 0.072,-0.574 0.074,-0.574ZM0.04,-0.523C0.043,-0.526 0.051,-0.524 0.051,-0.521C0.051,-0.521 0.048,-0.52 0.044,-0.52C0.04,-0.52 0.039,-0.522 0.04,-0.523ZM0.081,-0.431C0.079,-0.431 0.077,-0.433 0.078,-0.435C0.078,-0.436 0.08,-0.437 0.082,-0.436C0.084,-0.435 0.086,-0.433 0.086,-0.432C0.086,-0.432 0.084,-0.431 0.081,-0.431ZM0.079,-0.41C0.077,-0.41 0.075,-0.412 0.075,-0.414C0.075,-0.415 0.077,-0.416 0.079,-0.415C0.082,-0.414 0.083,-0.412 0.083,-0.411C0.083,-0.411 0.081,-0.41 0.079,-0.41ZM0.072,-0.446C0.074,-0.445 0.072,-0.444 0.066,-0.444C0.061,-0.444 0.058,-0.445 0.061,-0.446C0.064,-0.447 0.069,-0.447 0.072,-0.446ZM0.046,-0.327C0.047,-0.328 0.05,-0.33 0.051,-0.33C0.052,-0.329 0.052,-0.328 0.052,-0.326C0.052,-0.325 0.05,-0.324 0.047,-0.324C0.045,-0.324 0.044,-0.325 0.046,-0.327ZM0.074,-0.422C0.076,-0.424 0.078,-0.425 0.079,-0.425C0.08,-0.425 0.081,-0.424 0.08,-0.422C0.08,-0.421 0.078,-0.419 0.076,-0.419C0.073,-0.419 0.073,-0.421 0.074,-0.422ZM0.038,0.014C0.036,0.013 0.036,0.01 0.037,0.01C0.039,0.009 0.04,0.011 0.041,0.013C0.044,0.018 0.041,0.019 0.038,0.014ZM0.017,-0.085C0.016,-0.083 0.015,-0.085 0.015,-0.089C0.016,-0.093 0.017,-0.095 0.018,-0.093C0.019,-0.09 0.018,-0.087 0.017,-0.085ZM0.057,0.024C0.052,0.024 0.051,0.023 0.055,0.022C0.058,0.021 0.061,0.022 0.063,0.023C0.064,0.024 0.061,0.024 0.057,0.024ZM0.067,-0.438C0.062,-0.438 0.062,-0.439 0.065,-0.44C0.068,-0.441 0.072,-0.44 0.073,-0.439C0.074,-0.438 0.072,-0.438 0.067,-0.438ZM0.02,0.025C0.019,0.026 0.018,0.024 0.018,0.021C0.019,0.018 0.02,0.017 0.021,0.02C0.022,0.022 0.022,0.024 0.02,0.025Z" style="fill:white;fill-rule:nonzero;"/>
                </g>
            </g>
            <g transform="matrix(1.05649,0,0,1,-673.914,-1537.03)">
                <g transform="matrix(630.517,0,0,630.517,1006.77,3384.88)">
                    <path fill="currentColor" d="M0.633,-0.329C0.719,-0.29 0.801,-0.296 0.879,-0.352C0.889,-0.359 0.899,-0.369 0.908,-0.378C0.923,-0.394 0.933,-0.413 0.943,-0.432C0.955,-0.452 0.962,-0.474 0.965,-0.497C0.969,-0.526 0.966,-0.555 0.962,-0.584C0.95,-0.674 0.91,-0.75 0.845,-0.813C0.797,-0.859 0.74,-0.887 0.677,-0.905C0.613,-0.923 0.548,-0.927 0.482,-0.918C0.391,-0.906 0.307,-0.876 0.231,-0.825C0.204,-0.806 0.178,-0.785 0.156,-0.761C0.109,-0.712 0.081,-0.654 0.072,-0.587C0.063,-0.529 0.072,-0.474 0.102,-0.423C0.15,-0.342 0.243,-0.304 0.332,-0.331C0.373,-0.343 0.407,-0.366 0.436,-0.397C0.471,-0.437 0.486,-0.482 0.478,-0.535C0.474,-0.561 0.462,-0.583 0.441,-0.599C0.425,-0.612 0.407,-0.617 0.387,-0.617C0.375,-0.617 0.374,-0.615 0.374,-0.603C0.375,-0.6 0.376,-0.596 0.376,-0.592C0.375,-0.578 0.372,-0.564 0.358,-0.557C0.347,-0.551 0.332,-0.555 0.32,-0.566C0.309,-0.577 0.304,-0.591 0.304,-0.607C0.305,-0.622 0.308,-0.637 0.315,-0.65C0.326,-0.672 0.34,-0.692 0.357,-0.709C0.44,-0.79 0.539,-0.821 0.654,-0.803C0.677,-0.799 0.701,-0.792 0.721,-0.779C0.723,-0.777 0.725,-0.775 0.728,-0.772C0.725,-0.772 0.723,-0.771 0.721,-0.771C0.669,-0.773 0.626,-0.751 0.593,-0.712C0.547,-0.659 0.519,-0.597 0.506,-0.528C0.498,-0.481 0.484,-0.435 0.466,-0.39C0.443,-0.337 0.414,-0.288 0.372,-0.247C0.357,-0.231 0.339,-0.217 0.318,-0.208C0.306,-0.202 0.292,-0.199 0.278,-0.201C0.251,-0.205 0.239,-0.226 0.25,-0.251C0.251,-0.254 0.252,-0.257 0.254,-0.261C0.244,-0.266 0.235,-0.27 0.226,-0.274C0.172,-0.297 0.111,-0.282 0.074,-0.236C0.042,-0.197 0.033,-0.151 0.043,-0.103C0.054,-0.052 0.082,-0.015 0.13,0.007C0.137,0.011 0.144,0.014 0.152,0.018C0.227,0.054 0.301,0.052 0.374,0.013C0.418,-0.01 0.454,-0.042 0.483,-0.082C0.535,-0.152 0.572,-0.23 0.592,-0.316C0.595,-0.326 0.597,-0.336 0.6,-0.347C0.612,-0.341 0.622,-0.334 0.633,-0.329ZM0.62,-0.434C0.627,-0.474 0.633,-0.514 0.641,-0.555C0.649,-0.599 0.662,-0.642 0.685,-0.682C0.698,-0.705 0.718,-0.72 0.743,-0.729C0.75,-0.732 0.754,-0.731 0.759,-0.726C0.775,-0.71 0.787,-0.691 0.795,-0.67C0.827,-0.591 0.81,-0.49 0.755,-0.426C0.741,-0.41 0.724,-0.397 0.705,-0.388C0.679,-0.376 0.653,-0.377 0.627,-0.386C0.622,-0.387 0.617,-0.391 0.612,-0.394C0.615,-0.407 0.618,-0.421 0.62,-0.434Z" style="fill:white;fill-rule:nonzero;"/>
                </g>
            </g>
            <g transform="matrix(1.12495,0,0,1,485.66,-1057.2)">
                <g transform="matrix(630.517,0,0,630.517,463.832,2891.31)">
                    <path fill="currentColor" d="M0.444,-0.221C0.441,-0.219 0.437,-0.216 0.434,-0.213C0.425,-0.204 0.416,-0.194 0.407,-0.185C0.391,-0.168 0.377,-0.15 0.358,-0.138C0.354,-0.136 0.351,-0.132 0.346,-0.132C0.344,-0.135 0.344,-0.137 0.345,-0.14C0.348,-0.153 0.352,-0.166 0.356,-0.179C0.367,-0.21 0.378,-0.241 0.389,-0.273C0.403,-0.311 0.417,-0.35 0.43,-0.388C0.432,-0.394 0.434,-0.398 0.432,-0.404C0.428,-0.417 0.419,-0.423 0.407,-0.424C0.371,-0.429 0.338,-0.42 0.306,-0.406C0.302,-0.404 0.3,-0.4 0.299,-0.396C0.298,-0.389 0.296,-0.383 0.294,-0.376C0.289,-0.377 0.288,-0.38 0.285,-0.382C0.266,-0.401 0.243,-0.41 0.216,-0.41C0.186,-0.41 0.16,-0.4 0.135,-0.385C0.055,-0.336 -0.009,-0.222 0.001,-0.115C0.004,-0.086 0.013,-0.058 0.033,-0.036C0.052,-0.015 0.073,0.001 0.102,0.001C0.13,0.002 0.156,-0.006 0.179,-0.02C0.188,-0.025 0.196,-0.03 0.205,-0.034C0.213,-0.037 0.213,-0.037 0.218,-0.029C0.222,-0.021 0.228,-0.014 0.236,-0.009C0.256,0.001 0.276,0 0.296,-0.009C0.326,-0.024 0.351,-0.046 0.376,-0.068C0.413,-0.101 0.44,-0.14 0.46,-0.184C0.464,-0.192 0.466,-0.2 0.466,-0.209C0.465,-0.222 0.455,-0.228 0.444,-0.221ZM0.244,-0.289C0.233,-0.247 0.216,-0.208 0.184,-0.178C0.178,-0.172 0.172,-0.166 0.164,-0.163C0.155,-0.159 0.148,-0.163 0.148,-0.173C0.148,-0.179 0.149,-0.184 0.151,-0.189C0.161,-0.212 0.172,-0.233 0.189,-0.25C0.202,-0.263 0.214,-0.277 0.23,-0.288C0.234,-0.291 0.237,-0.294 0.242,-0.294C0.244,-0.292 0.244,-0.29 0.244,-0.289Z" style="fill:white;fill-rule:nonzero;"/>
                </g>
                <g transform="matrix(630.517,0,0,630.517,714.148,2891.31)">
                    <path fill="currentColor" d="M0.064,-0.344C0.074,-0.349 0.085,-0.343 0.084,-0.332C0.083,-0.325 0.081,-0.318 0.079,-0.312C0.058,-0.26 0.037,-0.207 0.016,-0.155C0.001,-0.117 -0.015,-0.079 -0.03,-0.041C-0.037,-0.024 -0.025,-0.007 -0.006,-0.008C-0.002,-0.008 0.001,-0.009 0.005,-0.01C0.036,-0.015 0.068,-0.022 0.098,-0.005C0.103,-0.002 0.107,-0.004 0.109,-0.01C0.112,-0.018 0.115,-0.026 0.118,-0.034C0.134,-0.078 0.148,-0.122 0.165,-0.165C0.18,-0.204 0.194,-0.243 0.215,-0.28C0.22,-0.287 0.224,-0.294 0.232,-0.297C0.237,-0.3 0.244,-0.302 0.25,-0.303C0.273,-0.309 0.297,-0.289 0.289,-0.262C0.288,-0.256 0.285,-0.251 0.283,-0.245C0.286,-0.239 0.291,-0.236 0.297,-0.235C0.321,-0.231 0.344,-0.234 0.364,-0.248C0.381,-0.26 0.393,-0.275 0.401,-0.294C0.41,-0.313 0.417,-0.334 0.416,-0.356C0.415,-0.374 0.409,-0.39 0.394,-0.401C0.387,-0.406 0.38,-0.41 0.372,-0.412C0.354,-0.419 0.335,-0.42 0.317,-0.413C0.287,-0.402 0.261,-0.384 0.238,-0.361C0.233,-0.356 0.227,-0.352 0.222,-0.347C0.217,-0.36 0.214,-0.371 0.209,-0.382C0.201,-0.4 0.186,-0.412 0.166,-0.415C0.152,-0.417 0.138,-0.419 0.123,-0.418C0.1,-0.417 0.078,-0.408 0.062,-0.391C0.052,-0.38 0.047,-0.368 0.046,-0.354C0.046,-0.348 0.047,-0.341 0.055,-0.338C0.058,-0.34 0.061,-0.343 0.064,-0.344Z" style="fill:white;fill-rule:nonzero;"/>
                </g>
                <g transform="matrix(630.517,0,0,630.517,954.374,2891.31)">
                    <path fill="currentColor" d="M0.443,-0.253C0.461,-0.273 0.475,-0.296 0.482,-0.323C0.495,-0.378 0.468,-0.421 0.412,-0.431C0.38,-0.436 0.35,-0.43 0.321,-0.417C0.311,-0.413 0.302,-0.407 0.291,-0.402C0.291,-0.409 0.294,-0.413 0.296,-0.418C0.308,-0.442 0.32,-0.467 0.332,-0.492C0.355,-0.536 0.37,-0.583 0.379,-0.632C0.387,-0.68 0.36,-0.722 0.313,-0.735C0.298,-0.74 0.282,-0.741 0.267,-0.738C0.217,-0.731 0.179,-0.705 0.149,-0.666C0.142,-0.656 0.14,-0.645 0.142,-0.633C0.144,-0.624 0.151,-0.619 0.159,-0.621C0.173,-0.624 0.177,-0.623 0.185,-0.612C0.194,-0.597 0.196,-0.582 0.194,-0.565C0.192,-0.55 0.184,-0.538 0.178,-0.525C0.129,-0.42 0.08,-0.315 0.03,-0.211C0.004,-0.154 -0.023,-0.098 -0.049,-0.042C-0.055,-0.03 -0.048,-0.015 -0.033,-0.011C-0.028,-0.009 -0.022,-0.009 -0.016,-0.01C-0.001,-0.014 0.015,-0.015 0.031,-0.016C0.054,-0.019 0.077,-0.018 0.099,-0.008C0.108,-0.004 0.109,-0.005 0.114,-0.014C0.123,-0.028 0.127,-0.044 0.133,-0.059C0.165,-0.142 0.205,-0.22 0.244,-0.299C0.252,-0.316 0.267,-0.327 0.285,-0.331C0.298,-0.334 0.309,-0.327 0.313,-0.315C0.315,-0.31 0.316,-0.304 0.316,-0.299C0.313,-0.272 0.3,-0.25 0.277,-0.235C0.267,-0.228 0.257,-0.225 0.245,-0.228C0.236,-0.23 0.235,-0.229 0.232,-0.221C0.226,-0.207 0.221,-0.193 0.217,-0.179C0.21,-0.157 0.206,-0.134 0.208,-0.11C0.21,-0.084 0.217,-0.059 0.234,-0.038C0.249,-0.019 0.267,-0.007 0.291,-0.004C0.315,-0.001 0.336,-0.006 0.356,-0.017C0.403,-0.043 0.435,-0.081 0.458,-0.129C0.463,-0.139 0.464,-0.15 0.465,-0.161C0.466,-0.166 0.463,-0.17 0.459,-0.173C0.452,-0.178 0.444,-0.179 0.436,-0.176C0.432,-0.174 0.427,-0.172 0.423,-0.17C0.408,-0.16 0.391,-0.156 0.373,-0.156C0.352,-0.155 0.331,-0.158 0.313,-0.17C0.308,-0.173 0.303,-0.175 0.302,-0.182C0.305,-0.182 0.307,-0.183 0.309,-0.183C0.363,-0.189 0.407,-0.213 0.443,-0.253Z" style="fill:white;fill-rule:nonzero;"/>
                </g>
                <g transform="matrix(630.517,0,0,630.517,1246.93,2891.31)">
                    <path fill="currentColor" d="M0.236,0.003C0.259,-0.005 0.277,-0.019 0.293,-0.037C0.32,-0.071 0.338,-0.109 0.348,-0.151C0.354,-0.172 0.357,-0.194 0.354,-0.216C0.35,-0.242 0.346,-0.267 0.339,-0.292C0.331,-0.318 0.323,-0.343 0.319,-0.369C0.317,-0.381 0.315,-0.394 0.327,-0.402C0.338,-0.41 0.339,-0.42 0.338,-0.432C0.335,-0.46 0.311,-0.475 0.285,-0.467C0.259,-0.459 0.242,-0.436 0.241,-0.409C0.241,-0.402 0.239,-0.398 0.234,-0.393C0.206,-0.368 0.178,-0.342 0.15,-0.316C0.145,-0.311 0.14,-0.309 0.132,-0.311C0.11,-0.315 0.089,-0.312 0.069,-0.301C0.042,-0.286 0.02,-0.266 0.003,-0.239C-0.003,-0.228 -0.008,-0.215 -0.011,-0.202C-0.017,-0.175 -0.015,-0.148 -0.011,-0.121C0.003,-0.036 0.068,0.019 0.153,0.019C0.182,0.02 0.209,0.013 0.236,0.003ZM0.235,-0.277C0.237,-0.251 0.237,-0.225 0.235,-0.199C0.233,-0.173 0.213,-0.153 0.188,-0.15C0.167,-0.147 0.149,-0.156 0.143,-0.172C0.137,-0.187 0.145,-0.206 0.163,-0.217C0.18,-0.228 0.198,-0.231 0.216,-0.222C0.219,-0.22 0.223,-0.216 0.226,-0.22C0.23,-0.223 0.227,-0.227 0.226,-0.23C0.222,-0.243 0.214,-0.253 0.206,-0.262C0.199,-0.269 0.198,-0.27 0.205,-0.276C0.213,-0.284 0.22,-0.293 0.232,-0.301C0.233,-0.291 0.235,-0.284 0.235,-0.277Z" style="fill:white;fill-rule:nonzero;"/>
                </g>
            </g>
        </g>
    </g>
</svg>
